<?xml version="1.0" standalone="no"?><!DOCTYPE svg PUBLIC "-//W3C//DTD SVG 1.1//EN" "http://www.w3.org/Graphics/SVG/1.1/DTD/svg11.dtd"><svg t="1540582929861" class="icon" style="" viewBox="0 0 1024 1024" version="1.1" xmlns="http://www.w3.org/2000/svg" p-id="1701" xmlns:xlink="http://www.w3.org/1999/xlink" width="200" height="200"><defs><style type="text/css"></style></defs><path d="M311.330535 130.133876c6.882206-11.33078 12.900865-15.779354 18.055977-13.37189 7.196223 3.087834 12.508344 6.332676 15.936363 9.786863 5.155112 4.814927 7.928929 10.990595 8.242946 18.527003 0.340185 13.738244-0.183177 25.93257-1.543917 36.58298a92.373333 92.373333 0 0 0-3.061666 28.340033c0.340185 7.902761-0.183177 15.098984-1.570085 21.614837-1.700925 9.629855-3.087834 23.708283-4.108389 42.235286-0.366353 12.717688-3.087834 30.067127-8.242946 52.048317a633.660128 633.660128 0 0 1-12.874696 47.390398c-2.407464 7.222391-5.128944 14.941975-8.216779 23.211089a141.28148 141.28148 0 0 0-8.242946 22.66156c-4.108389 13.031705-8.766308 19.390549-13.895252 19.050364-4.841095-1.020555-7.065382-7.902761-6.699029-20.594281 0.68037-7.536408 2.721481-20.254096 6.175668-38.126897 2.721481-12.69152 5.128944-29.883951 7.196222-51.524955 2.407464-28.863395 4.631751-48.437121 6.69903-58.721178 2.067279-9.97004 3.087834-19.756903 3.087834-29.360589 0-11.356948 0.183177-21.798013 0.523361-31.427868 1.020555-16.485892 0.863547-30.040959-0.523361-40.717537-3.114002-16.826077-2.093447-29.360589 3.061665-37.603535z m15.988699 249.355662c3.087834-4.814927 6.175668-7.379399 9.263501-7.719584 4.108389-0.340185 6.856038 0.183177 8.216778 1.543917a19.024196 19.024196 0 0 1 5.155113 7.745752 16.721405 16.721405 0 0 1 2.59064 10.310225c2.407464 16.485892 5.312121 28.863395 8.740139 37.080174 2.067279 5.521465 2.067279 9.446678 0 11.854141-4.108389 4.474742-7.196223 6.515853-9.263501 6.175668-3.087834-0.340185-5.338289 1.700925-6.725197 6.175667-1.020555 2.407464-3.244842 3.794372-6.699029 4.108389-2.04111 0.340185-4.814927-3.27101-8.216778-10.807418a70.522983 70.522983 0 0 1-5.678474-21.641005 163.39351 163.39351 0 0 1-1.543917-30.381144 22.347543 22.347543 0 0 1 4.160725-14.444782z m135.472165-73.689321a7.902761 7.902761 0 0 0 0 4.134557 4.841095 4.841095 0 0 1-2.067278 4.108389c-4.814927 2.747649-11.33078 6.358844-19.573726 10.807418-9.603686 5.495297-21.274651 11.356948-35.039063 17.532616-4.448574 2.04111-7.902761 2.407464-10.310225 1.020555a20.803626 20.803626 0 0 0-4.108389-1.543917 6.568189 6.568189 0 0 1-4.108389-2.59064l-2.067279-2.067279a80.780872 80.780872 0 0 1-7.719584-6.699029 119.84982 119.84982 0 0 1-11.356948-13.895252 177.131753 177.131753 0 0 0-10.310225-14.444782 85.674303 85.674303 0 0 1-6.699029-12.874696 43.962379 43.962379 0 0 1-3.611196-19.573726c0-6.882206 2.04111-11.487788 6.175668-13.895252 5.18128-3.401851 12.586848-1.857934 22.190534 4.657918 1.727093-1.36074 3.794372-2.59064 6.175668-3.611195 10.65041-4.814927 20.620449-8.766308 29.910119-11.854142 9.263501-3.061666 15.098984-4.631751 17.506447-4.63175a26.115747 26.115747 0 0 0 16.983086-9.786863 16.799909 16.799909 0 0 1 13.92142-5.678474c10.310225 1.753262 19.076532 6.358844 26.272755 13.947588 3.794372 4.814927 3.925212 11.487788 0.523362 20.097087-9.97004 19.913911-17.506447 33.99234-22.66156 42.235286a10.859754 10.859754 0 0 1-0.026168 4.605583z m28.340034-159.677642a122.152611 122.152611 0 0 1-4.134557-11.356948c-28.811059 11.670965-50.452064 19.573726-64.896846 23.708283-5.835482 1.727093-10.310225 2.04111-13.398058 1.020555a1061.246602 1061.246602 0 0 1-12.377503-3.585027 52.336166 52.336166 0 0 1-10.284057-5.678474 15.596177 15.596177 0 0 1-5.678474-8.269114 17.009254 17.009254 0 0 0-4.631751-9.237333c-3.454187-3.087834-4.108389-6.699029-2.067278-10.833587 1.700925-4.108389 3.794372-6.332676 6.175667-6.699029 13.398058-4.108389 25.93257-8.923316 37.629703-14.418614 5.835482-3.087834 14.941975-6.358844 27.293311-9.786863 6.175668-2.067279 14.078429-4.788759 23.708283-8.242946a1522.432896 1522.432896 0 0 1-10.833586-34.541869c-5.835482-16.485892-7.196223-28.497042-4.108389-36.059619a19.233541 19.233541 0 0 1 9.786863-10.284056c6.882206-2.067279 12.874697-2.407464 18.029809-1.020555 5.128944 2.04111 9.42051 6.699029 12.874697 13.895252 2.407464 5.495297 4.631751 13.057873 6.699029 22.661559 1.36074 7.562576 3.611195 16.669069 6.699029 27.293311 17.872801-8.923316 30.040959-16.642901 36.556812-23.184922 3.794372-3.428019 7.902761-4.108389 12.377503-2.04111 4.108389 2.04111 8.766308 3.27101 13.895252 3.611195 5.155112 1.020555 9.97004 3.794372 14.444782 8.216779a23.655947 23.655947 0 0 1 6.699029 15.96253 17.349439 17.349439 0 0 1-5.678474 15.465337c-13.712075 11.016763-33.966172 22.870904-60.788456 35.562425 1.046723 3.087834 2.250455 6.358844 3.611195 9.786863 9.97004 27.816672 20.777458 58.223984 32.474591 91.169601 5.469129 15.805522 12.01115 31.611044 19.573726 47.416566 3.768204-23.368098 6.175668-51.158602 7.196223-83.450017 0.68037-14.732631 3.087834-24.885847 7.196223-30.381144 4.108389-5.861651 8.766308-8.766308 13.895252-8.766308 5.495297 0.366353 11.513956 5.861651 18.029809 16.485893 7.536408 12.037318 10.127048 23.368098 7.719584 34.018507a345.680375 345.680375 0 0 0-5.128944 41.214731c-1.727093 18.893356-7.379399 48.59413-16.983086 89.102322a17.06159 17.06159 0 0 0-1.046723 2.590641c20.960634 36.059618 40.874546 66.100577 59.767901 90.149045 6.175668 7.196223 12.01115 10.65041 17.506448 10.310225 3.087834 0 5.312121-4.291566 6.699029-12.874697 1.046723-6.856038 2.067279-14.60179 3.087834-23.184921 1.046723-9.603686 3.087834-14.235437 6.175667-13.895252 3.087834 1.020555 5.312121 6.882206 6.699029 17.506447 2.747649 22.66156 5.155112 37.289518 7.196223 43.805371 2.067279 5.128944 4.841095 9.42051 8.242946 12.874697 7.562576 7.902761 11.487788 14.60179 11.854142 20.097087 0 6.175668-1.570085 11.487788-4.657919 15.962531-3.428019 5.155112-7.902761 7.902761-13.398058 8.242946-12.69152 1.020555-24.885847-2.59064-36.556812-10.833586a350.25979 350.25979 0 0 1-56.680068-51.001594 341.100961 341.100961 0 0 1-37.080173-49.95487c-2.067279 4.108389-4.317734 8.216778-6.699029 12.377503-5.861651 9.97004-12.037318 17.166262-18.553171 21.614837-5.495297 3.454187-12.534512 12.534512-21.143811 27.319478-5.495297 9.97004-9.786863 14.235437-12.874697 12.874697-3.087834-1.727093-3.087834-6.882206 0-15.465337-7.196223 1.020555-12.534512 3.794372-15.962531 8.242946a25.173696 25.173696 0 0 1-16.983085 7.719584c-9.263501 1.020555-21.274651 0.837379-36.059619-0.523361-16.145707 0-30.590489-3.611195-43.282009-10.807418-10.598074-5.861651-21.588668-16.51206-32.919448-31.95123-6.175668-9.263501-11.487788-21.641005-15.962531-37.106341-0.340185-10.310225 0.183177-16.669069 1.570085-19.076533 2.721481-4.814927 5.652306-7.379399 8.74014-7.719584a16.041035 16.041035 0 0 1 13.92142 5.128944c3.768204 4.474742 6.175668 9.446678 7.196223 14.941975 3.087834 12.377503 10.310225 23.682115 21.641004 34.018508 9.943872 8.923316 18.186818 13.398058 24.702671 13.398059 10.336393 0.68037 19.233541 0.340185 26.796117-1.046724 7.536408-2.04111 11.827973-4.108389 12.874696-6.175667 0.340185-1.36074-1.046723-3.768204-4.134557-7.196223a120.504022 120.504022 0 0 1-12.874696-16.485892c-5.835482-7.536408-8.085938-11.854142-6.69903-12.874697 1.386908-1.36074 4.814927-0.837379 10.310225 1.570085 4.134557 2.04111 9.263501 5.835482 15.465337 11.33078 10.990595 10.65041 20.777458 16.485892 29.360589 17.532615 9.97004 1.020555 16.669069 3.794372 20.123256 8.216778 0 0.366353 0.157008 0.68037 0.523361 1.020556 1.36074-4.448574 2.721481-8.399955 4.108389-11.827974l19.573726-54.612789c0.68037-3.087834 1.700925-6.358844 3.087834-9.786863-20.254096-40.874546-34.698878-74.369692-43.255841-100.45927a8688.588569 8688.588569 0 0 0-31.977397-92.739686z m-70.57532 32.448423c13.712075-7.562576 23.682115-14.60179 29.883951-21.143811a7.876593 7.876593 0 0 1 6.175668-1.543917 11.88031 11.88031 0 0 0 4.108389 1.020555c2.067279 0.366353 3.611195 0.706538 4.657918 1.046723a15.439169 15.439169 0 0 0 6.175668 2.564473 7.824257 7.824257 0 0 1 4.631751 4.657918c0.68037 1.700925 1.203732 3.087834 1.570085 4.108389 1.020555 1.386908 1.700925 3.27101 2.04111 5.678474s0.68037 4.291566 1.046723 5.652306c0 3.087834-0.706538 5.338289-2.067278 6.725198a245.901475 245.901475 0 0 1-33.495146 25.226031c-12.351335 7.222391-21.824181 12.037318-28.340034 14.418614a23.682115 23.682115 0 0 1-14.418614 1.543917c-4.134557-1.020555-8.923316-4.291566-14.418614-9.786863a36.242795 36.242795 0 0 1-8.269114-14.418614c-1.386908-5.495297 0.523362-8.766308 5.678474-9.786863 5.495297-1.046723 17.19243-6.358844 35.039063-15.96253z m-26.769949 111.266688c1.020555 1.727093 2.224287 3.637364 3.611196 5.678474 2.407464 4.474742 5.312121 8.949484 8.74014 13.398059 0.366353 1.046723 0.68037 1.727093 1.046723 2.067278 4.814927-4.108389 13.031705-8.923316 24.70267-14.444781 2.407464-5.835482 5.155112-12.351335 8.242946-19.573726 2.067279-6.856038 1.884102-10.990595-0.523361-12.351336-0.68037 0-3.087834 1.020555-7.196223 3.087834-15.125152 8.242946-27.999849 15.622345-38.624091 22.138198z m39.147452 46.893205c3.087834 1.386908 6.332676 3.794372 9.786864 7.196223 3.087834 3.087834 5.312121 4.841095 6.699029 5.155112 1.36074 0.340185 2.721481-0.523362 4.108389-2.59064 1.700925-2.067279 3.27101-4.108389 4.657919-6.175668 2.381296-3.428019 4.265398-4.631751 5.652305-3.611195s1.570085 3.087834 0.523362 6.175667a115.113397 115.113397 0 0 0-4.631751 13.895252c-1.386908 3.794372-1.020555 8.426123 1.020556 13.921421 1.386908 4.108389 1.046723 7.379399-1.020556 9.786863a14.915807 14.915807 0 0 0-4.63175 9.263501c-1.046723 3.087834-4.317734 3.951381-9.786863 2.59064-4.134557-1.36074-9.446678-5.128944-15.962531-11.33078a69.868781 69.868781 0 0 1-11.854141-14.444782c-1.020555-4.108389-0.863547-9.42051 0.523361-15.96253 1.020555-7.902761 3.27101-12.534512 6.699029-13.895252 2.014942-1.36074 4.762591-1.36074 8.216778 0.026168z m46.867037-22.164366c1.386908-3.428019 5.312121-4.971936 11.854142-4.631751 12.01115-0.366353 21.117643 1.203732 27.29331 4.631751 6.542021 5.155112 10.990595 10.807418 13.424227 16.983085 2.04111 5.521465 1.36074 10.467233-2.067279 14.941976-3.794372 5.155112-7.902761 7.562576-12.377503 7.196223a40.586697 40.586697 0 0 1-15.962531-5.678474 78.268736 78.268736 0 0 1-19.599894-20.568114c-3.768204-4.448574-4.605583-8.766308-2.564472-12.874696zM615.298986 51.812804c-4.108389-2.721481-6.175668-7.353231-6.175667-13.895252 0.366353-5.128944 3.27101-9.263501 8.766308-12.377503 3.087834-1.36074 7.196223-1.857934 12.377503-1.543917a22.426047 22.426047 0 0 1 10.807418 3.611195c1.700925 1.020555 4.291566 3.087834 7.745753 6.175668 4.108389 3.794372 8.399955 8.766308 12.874696 14.941975 2.721481 4.108389 4.108389 7.379399 4.108389 9.786863 0 6.882206-0.68037 11.487788-2.067278 13.895252a99.595724 99.595724 0 0 0-4.108389 8.216778 27.397983 27.397983 0 0 1-7.719585 7.745753 17.401775 17.401775 0 0 1-7.745752 2.59064c-2.721481 0-7.902761-5.155112-15.465337-15.465337a15.962531 15.962531 0 0 1-2.564472-6.175667 13.24105 13.24105 0 0 0-1.570085-4.108389 128.694632 128.694632 0 0 0-5.128945-8.766308 19.940079 19.940079 0 0 0-4.134557-4.631751zM309.786618 873.935465c1.727093-1.700925 4.841095-1.570085 9.263502 0.523362 3.794372 1.727093 7.222391 3.794372 10.336392 6.175667 2.381296 2.067279 3.428019 6.882206 3.061666 14.444782 0.366353 8.216778 1.203732 16.119539 2.59064 23.682115 0.68037 4.814927 2.067279 9.97004 4.134557 15.465337 2.721481 7.196223 5.835482 15.622345 9.263502 25.2522 2.407464 7.196223 1.884102 12.01115-1.543917 14.418614a20.097088 20.097088 0 0 0-6.699029 9.786863c-3.087834 9.263501-5.861651 14.078429-8.242946 14.444782-1.700925 0.340185-4.108389-0.706538-7.196223-3.087834-4.108389-3.087834-7.379399-8.766308-9.786863-17.009254a243.991205 243.991205 0 0 1-6.175668-35.039063 261.81167 261.81167 0 0 1-2.59064-29.360589c0-8.923316 0.183177-17.689624 0.523362-26.272755 0.654202-6.908374 1.700925-11.356948 3.061665-13.424227z m255.034136-317.863703c5.835482-6.515853 11.33078-9.263501 16.485893-8.216778 6.515853 1.386908 13.031705 4.291566 19.573726 8.74014 6.882206 5.521465 11.487788 15.125152 13.895252 28.863395 6.175668 37.106342 9.106493 67.147301 8.766307 90.149046a2123.644601 2123.644601 0 0 1-2.59064 87.610741c-1.020555 16.485892-4.814927 30.040959-11.33078 40.691369-5.155112 8.949484-10.833586 13.92142-17.009254 14.941975-9.603686 1.700925-16.145707 4.291566-19.573726 7.719585a41.607252 41.607252 0 0 1-14.418613 8.766308c-3.087834 0.340185-5.338289-1.020555-6.69903-4.108389a66.911788 66.911788 0 0 1-5.155112-17.532616 59.087531 59.087531 0 0 0-5.678474 1.046723 97.345268 97.345268 0 0 0-26.769949 8.74014c-7.902761 4.134557-43.439018 13.057873-106.634938 26.796117a30.354976 30.354976 0 0 1-17.532615-1.046723c-4.814927-1.386908-9.237333-7.405567-13.398059-18.055977-3.087834-7.562576-3.428019-13.581235-1.020555-18.02981a17.846633 17.846633 0 0 1 1.543917-2.067278c-2.721481-19.913911-4.108389-36.216627-4.108389-48.934315v-47.91376c-0.340185-17.846633 0-36.739988 1.020555-56.6539 1.386908-23.708283 3.794372-47.573575 7.222391-71.595874 1.36074-8.583131 3.768204-15.648514 7.196223-21.143811 3.087834-4.474742 6.882206-6.699029 11.33078-6.69903 5.861651-0.340185 10.990595 0.68037 15.465337 3.087834s8.242946 6.358844 11.33078 11.854142c39.487637-6.542021 72.119237-9.106493 97.86863-7.745753 18.579339 1.020555 31.951229-2.067279 40.220343-9.263501zM377.797466 876.002744c1.700925-5.861651 4.814927-9.263501 9.263501-10.336393 7.902761-1.700925 13.424227-1.543917 16.51206 0.54953 5.128944 3.428019 9.42051 10.467233 12.874697 21.117642 2.721481 11.670965 8.399955 22.347543 16.983086 31.95123a125.894647 125.894647 0 0 0 42.235286 33.468978 144.42165 144.42165 0 0 0 58.721178 16.51206c19.573726 1.700925 37.26335 0.523362 53.068872-3.637363 17.166262-4.448574 28.863395-9.263501 35.039063-14.418614 2.04111-4.474742 0.837379-9.263501-3.637363-14.444782a1221.656951 1221.656951 0 0 0-30.904506-31.925061c-5.155112-5.155112-6.699029-8.949484-4.657919-11.356948 1.046723-2.407464 5.678474-0.837379 13.92142 4.631751 30.197968 20.280264 56.837076 32.631599 79.864989 37.106341 9.263501 4.474742 14.915807 12.534512 16.983086 24.231645 2.04111 10.624242-1.046723 17.166262-9.263501 19.573726a57.569782 57.569782 0 0 0-21.143811 15.439169c-5.128944 6.882206-13.581235 12.534512-25.226032 17.009254a137.539444 137.539444 0 0 1-42.261454 10.807418c-15.805522 1.700925-35.536257 1.884102-59.24454 0.523362a178.204645 178.204645 0 0 1-42.235286-10.310225c-20.960634-8.242946-37.786712-17.166262-50.5044-26.769949a216.828735 216.828735 0 0 1-40.168007-41.738092c-7.222391-9.603686-14.104597-23.865292-20.620449-42.784816-5.076608-11.304612-6.96071-19.704566-5.59997-25.199863z m54.612789-115.401246c12.01115-18.186818 20.227928-33.154961 24.70267-44.825926a41.08389 41.08389 0 0 0 2.067279-5.678474c-3.454187 0-5.861651-0.183177-7.196223-0.523362a225.019345 225.019345 0 0 1-11.356948-4.108389 34.463365 34.463365 0 0 1-8.766308-5.155112 11.383116 11.383116 0 0 1-4.108389-7.719585 18.945692 18.945692 0 0 0-4.108389-8.766307 9.394342 9.394342 0 0 1-1.570085-9.786863c1.700925-3.428019 3.794372-5.312121 6.175668-5.678474 6.515853-1.36074 13.057873-3.244842 19.573726-5.678474 3.087834-1.020555 7.902761-2.224287 14.444781-3.611196a24.100804 24.100804 0 0 1 8.216778-2.04111c2.067279-12.69152 3.087834-23.865292 3.087834-33.495146 0.68037-11.670965 3.27101-18.710179 7.745753-21.117643 4.814927-2.747649 10.310225-1.884102 16.485892 2.564472 8.583131 6.542021 14.078429 13.057873 16.485892 19.599894 0.68037 4.448574 0.340185 8.74014-1.020555 12.874697a5.495297 5.495297 0 0 0-1.046723 2.04111 8.295282 8.295282 0 0 1 3.087834-2.04111 10.022376 10.022376 0 0 1 9.786863-1.046724 23.237258 23.237258 0 0 0 11.356947 3.611196c3.794372 0.68037 7.379399 3.087834 10.807419 7.222391 2.747649 3.087834 4.291566 7.379399 4.657918 12.874697a13.79058 13.79058 0 0 1-4.657918 11.827973c-8.923316 7.562576-23.184921 15.125152-42.758648 22.66156a17.454111 17.454111 0 0 0-6.175667 2.59064 22.713896 22.713896 0 0 0-2.067279 6.699029c1.046723-0.340185 1.700925-0.340185 2.067279 0 3.087834 0.68037 8.242946 2.067279 15.465337 4.108389 8.923316 2.433632 18.710179 6.725197 29.360589 12.874697 5.835482 3.454187 9.97004 7.222391 12.377503 11.356948 2.407464 5.495297 3.428019 9.446678 3.087834 11.854142a46.317507 46.317507 0 0 0-1.046724 8.740139c0.366353 2.747649-0.68037 5.678474-3.087833 8.766308a22.504551 22.504551 0 0 1-6.1495 5.155112c-2.067279 0.68037-7.928929-1.700925-17.532615-7.22239a123.146998 123.146998 0 0 1-11.33078-7.719585c-2.433632-3.087834-4.317734-4.814927-5.678474-5.155112a144.892675 144.892675 0 0 0-16.485893-8.74014 37.94372 37.94372 0 0 0-11.854141-3.611195l-3.087834-1.046724c-2.747649 4.474742-5.312121 8.766308-7.719584 12.874697-6.542021 9.263501-14.104597 16.145707-22.66156 20.620449a426.539751 426.539751 0 0 0-14.941975 8.216778c-6.175668 5.155112-10.807418 8.949484-13.895253 11.356948-2.067279 1.386908-3.794372 1.386908-5.155112 0 0.340185 5.495297 1.020555 11.33078 2.067279 17.506448v3.087834a919.938955 919.938955 0 0 0 47.390398-11.854142c28.863395-7.902761 46.526851-14.052261 53.068872-18.527003a20.515777 20.515777 0 0 1 12.377503-4.657918c3.428019 0.366353 8.399955 3.794372 14.915807 10.310224 1.386908 1.386908 2.59064 2.747649 3.611196 4.134557h1.570085c4.814927-5.495297 7.719584-17.009254 8.766308-34.515701 1.700925-28.863395 2.564472-56.837076 2.564472-83.973378-0.340185-20.960634-0.68037-40.351184-1.020555-58.223984-0.340185-13.057873-2.224287-20.620449-5.678474-22.66156-4.448574-3.428019-10.310225-4.474742-17.506448-3.087834-27.136302 4.814927-49.457677 10.310225-66.990292 16.485892-12.01115 4.474742-28.52321 9.446678-49.457677 14.941976-1.046723 0-1.386908 0.183177-1.046723 0.523361-1.727093 6.542021-2.747649 14.104597-3.087834 22.687728a811.733932 811.733932 0 0 0-2.59064 49.95487V737.939938c-0.68037 14.418614-0.523362 29.543766 0.523361 45.32312 0.68037-2.067279 2.224287-4.657919 4.631751-7.745753 3.454187-5.469129 6.856038-10.441065 10.310225-14.915807z m73.139792 78.818266c4.134557 2.407464 7.902761 5.861651 11.356948 10.310224 3.428019 4.841095 5.835482 7.405567 7.196222 7.745753s3.27101-0.183177 5.678474-1.570085c2.721481-2.04111 5.128944-3.768204 7.196223-5.128944 3.794372-3.087834 6.175668-3.951381 7.196223-2.590641 1.386908 1.700925 1.386908 4.291566 0 7.719585l-7.719585 15.465337c-1.727093 4.108389-1.884102 9.446678-0.523361 15.96253 0.654202 4.814927-0.183177 8.426123-2.59064 10.807419a23.21109 23.21109 0 0 0-6.69903 10.336392c-1.386908 3.428019-5.338289 3.925212-11.854141 1.543917-4.814927-2.04111-10.807418-7.196223-18.003641-15.465337a58.930523 58.930523 0 0 1-13.424227-19.076532c-1.020555-5.128944-0.340185-12.01115 2.067279-20.594281 1.700925-9.97004 4.814927-15.622345 9.263501-16.983086 2.799985-2.093447 6.385012-1.570085 10.859755 1.517749z m117.468524-1.020556c-2.747649-5.835482-1.884102-12.377503 2.59064-19.573726 2.381296-3.794372 6.699029-6.882206 12.874697-9.263501a32.448423 32.448423 0 0 1 14.418613-2.59064c3.087834 0.68037 8.766308 1.727093 16.983086 3.087834 9.263501 2.067279 20.123256 5.861651 32.448423 11.356948 7.222391 3.087834 12.037318 6.699029 14.444782 10.807418 4.448574 8.242946 6.515853 14.078429 6.175667 17.506447a69.34542 69.34542 0 0 0 0 12.377504 18.239154 18.239154 0 0 1-3.611195 13.398058 27.869008 27.869008 0 0 1-7.745753 7.745753c-3.428019 2.04111-12.534512-0.523362-27.29331-7.745753a50.478232 50.478232 0 0 1-10.833586-7.719584c-3.087834-3.087834-5.312121-4.814927-6.69903-5.155113a173.468222 173.468222 0 0 0-16.485892-8.216778 37.81288 37.81288 0 0 0-11.827973-3.611195c-6.82987-0.732706-12.01115-4.841095-15.439169-12.403672z" fill="#333333" p-id="1702"></path></svg>